<svg xmlns="http://www.w3.org/2000/svg" width="748" height="597" viewBox="0 0 748 597"><g transform="translate(-293 -417)"><g transform="translate(41 -36)"><g transform="translate(362 453)"><path d="M706.733,652.473l5,96s-211.494-201.3-237.842-260.191,23.248-204.588,23.248-204.588L607.182,344.14Z" transform="translate(-347.267 -151.527)" fill="#9f616a"/><path d="M382.446,243.4,349.9,246.5s-17.049,37.2,35.648,40.3Z" transform="translate(-347.267 -151.527)" fill="#9f616a"/><path d="M382.446,300.743l-32.548,3.1s-17.049,37.2,35.648,40.3Z" transform="translate(-347.267 -151.527)" fill="#9f616a"/><path d="M382.446,362.739l-32.548,3.1s-17.049,37.2,35.648,40.3Z" transform="translate(-347.267 -151.527)" fill="#9f616a"/><path d="M391.746,424.735l-32.548,3.1s-17.049,37.2,35.648,40.3Z" transform="translate(-347.267 -151.527)" fill="#9f616a"/><path d="M366.6,258.34h2.47V190.685a39.157,39.157,0,0,1,39.157-39.157H551.565a39.157,39.157,0,0,1,39.157,39.157V561.848a39.157,39.157,0,0,1-39.157,39.157H408.227a39.157,39.157,0,0,1-39.157-39.157V306.5H366.6Z" transform="translate(-347.267 -151.527)" fill="#3f3d56"/><path d="M406.647,161.715h18.71a13.893,13.893,0,0,0,12.863,19.14h82.116a13.893,13.893,0,0,0,12.863-19.14h17.476a29.242,29.242,0,0,1,29.242,29.242V561.576a29.242,29.242,0,0,1-29.242,29.242H406.647A29.242,29.242,0,0,1,377.4,561.576h0V190.957a29.242,29.242,0,0,1,29.242-29.242Z" transform="translate(-347.267 -151.527)" fill="#fff"/><rect width="61.715" height="14.892" transform="translate(100.537 114.016)" fill="#ffc000"/><rect width="67.592" height="14.892" transform="translate(97.599 178.009)" fill="#e5e5e5"/><rect width="150.858" height="14.892" transform="translate(55.965 210)" fill="#e5e5e5"/><rect width="150.858" height="14.892" transform="translate(55.965 241.99)" fill="#e5e5e5"/><path d="M852.733,702.473,679.253,504.556l-6.2-127.092-65.1-108.493-18.6-46.5s-43.4,4.65-7.75,92.994l14.724,47.272h0a216.674,216.674,0,0,0-20.149,91.244V562.308c0,25.507,121.55,164.443,135.7,185.666h0Z" transform="translate(-347.267 -151.527)" fill="#9f616a"/><path d="M247.2,126.636l12.941-6.36-.441-.9-11.957,5.877-18.05-47.323-.934.357Z" opacity="0.2"/><rect width="1" height="20.43" transform="translate(2.459 95.437) rotate(-69.778)" opacity="0.2"/><rect width="1" height="20.43" transform="translate(2.459 153.437) rotate(-69.778)" opacity="0.2"/><rect width="1" height="20.43" transform="translate(2.459 215.437) rotate(-69.778)" opacity="0.2"/><rect width="1" height="10.353" transform="translate(12.417 277.417) rotate(-64.361)" opacity="0.2"/><circle cx="43.23" cy="43.23" r="43.23" transform="translate(88.241 298.945)" fill="#ffc000"/><path d="M127.351,360.424l-12.938-16.637,7.524-5.852,6.126,7.877,20.7-21.848,6.921,6.557Z" fill="#f5f5f5"/></g><rect width="748" height="94" transform="translate(252 956)" fill="#7B7C74"/></g></g></svg>